# xmcd
#
# Track frame offsets:
#  150
#  17587
#  30955
#  51865
#  71680
#  90167
#  107867
#  123737
#  141067
#  162792
#  179587
#  196015
#
# Disc length: 2815 seconds
#
# Revision: 0
# Processed by: cddbd v1.5.1PL2 Copyright (c) Steve Scherf et al.
# Submitted via: Collectorz.com_Music_Collector 6.9
#
DISCID=970afd0c
DTITLE=費玉清 - 何日君再來
DYEAR=2003
DGENRE=Blues
TTITLE0=原鄉人
TTITLE1=何日君再來
TTITLE2=再見我的愛人
TTITLE3=我心深處
TTITLE4=奈何
TTITLE5=償還
TTITLE6=我怎能離開你
TTITLE7=小村之戀
TTITLE8=月亮代表我的心
TTITLE9=千言萬語
TTITLE10=小城故事
TTITLE11=夜來香
EXTD=
EXTT0=
EXTT1=
EXTT2=
EXTT3=
EXTT4=
EXTT5=
EXTT6=
EXTT7=
EXTT8=
EXTT9=
EXTT10=
EXTT11=
PLAYORDER=
